<mxfile host="app.diagrams.net" modified="2021-09-16T09:49:07.323Z" agent="5.0 (Windows)" etag="X3qB2MXuysX4gPvf55_p" version="15.2.7" type="github">
  <diagram id="UNVHkKVHkpQPmcZDYZuC" name="Page-1">
    <mxGraphModel dx="815" dy="603" grid="1" gridSize="10" guides="1" tooltips="1" connect="1" arrows="1" fold="1" page="1" pageScale="1" pageWidth="827" pageHeight="1169" math="0" shadow="0">
      <root>
        <mxCell id="0" />
        <mxCell id="1" parent="0" />
        <mxCell id="FxjFp0CKfUFNL3bywg3y-1" value="&lt;div&gt;Accueil&lt;/div&gt;&lt;div&gt;Qui sommes-nous?&lt;br&gt;&lt;/div&gt;" style="rounded=0;whiteSpace=wrap;html=1;" vertex="1" parent="1">
          <mxGeometry x="20" y="40" width="120" height="60" as="geometry" />
        </mxCell>
        <mxCell id="FxjFp0CKfUFNL3bywg3y-2" value="Votre séjour" style="rounded=0;whiteSpace=wrap;html=1;" vertex="1" parent="1">
          <mxGeometry x="20" y="120" width="120" height="60" as="geometry" />
        </mxCell>
        <mxCell id="FxjFp0CKfUFNL3bywg3y-3" value="Offre de soins" style="rounded=0;whiteSpace=wrap;html=1;" vertex="1" parent="1">
          <mxGeometry x="20" y="200" width="120" height="60" as="geometry" />
        </mxCell>
        <mxCell id="FxjFp0CKfUFNL3bywg3y-4" value="&lt;font style=&quot;font-size: 16px&quot;&gt;Diagramme hiérarchique Menucourt&lt;/font&gt;" style="text;html=1;align=center;verticalAlign=middle;resizable=0;points=[];autosize=1;strokeColor=none;fillColor=none;" vertex="1" parent="1">
          <mxGeometry x="20" y="10" width="270" height="20" as="geometry" />
        </mxCell>
        <mxCell id="FxjFp0CKfUFNL3bywg3y-5" value="Démarches qualité &amp;amp;instances" style="rounded=0;whiteSpace=wrap;html=1;" vertex="1" parent="1">
          <mxGeometry x="20" y="280" width="120" height="60" as="geometry" />
        </mxCell>
        <mxCell id="FxjFp0CKfUFNL3bywg3y-6" value="Nous contacter" style="rounded=0;whiteSpace=wrap;html=1;" vertex="1" parent="1">
          <mxGeometry x="20" y="360" width="120" height="60" as="geometry" />
        </mxCell>
      </root>
    </mxGraphModel>
  </diagram>
</mxfile>
